Coordinates
version=1
nRows=9
nColumns=63
inDegrees=yes

Units are S.I. units (second, meters, Newtons, ...)
If the header above contains a line with 'inDegrees', this indicates whether rotational values are in degrees (yes) or radians (no).

endheader
time	pelvis_tilt	pelvis_list	pelvis_rotation	pelvis_tx	pelvis_ty	pelvis_tz	hip_flexion_r	hip_adduction_r	hip_rotation_r	knee_angle_r	knee_angle_r_beta	ankle_angle_r	subtalar_angle_r	mtp_angle_r	hip_flexion_l	hip_adduction_l	hip_rotation_l	knee_angle_l	knee_angle_l_beta	ankle_angle_l	subtalar_angle_l	mtp_angle_l	L5_S1_Flex_Ext	L5_S1_Lat_Bending	L5_S1_axial_rotation	L4_L5_Flex_Ext	L4_L5_Lat_Bending	L4_L5_axial_rotation	L3_L4_Flex_Ext	L3_L4_Lat_Bending	L3_L4_axial_rotation	L2_L3_Flex_Ext	L2_L3_Lat_Bending	L2_L3_axial_rotation	L1_L2_Flex_Ext	L1_L2_Lat_Bending	L1_L2_axial_rotation	L1_T12_Flex_Ext	L1_T12_Lat_Bending	L1_T12_axial_rotation	Abs_r3	Abs_r2	Abs_r1	Abs_t1	Abs_t2	neck_flexion	neck_bending	neck_rotation	arm_flex_r	arm_add_r	arm_rot_r	elbow_flex_r	pro_sup_r	wrist_flex_r	wrist_dev_r	arm_flex_l	arm_add_l	arm_rot_l	elbow_flex_l	pro_sup_l	wrist_flex_l	wrist_dev_l
     11.24200000	    -49.38982085	     -2.95086393	     -1.04878899	     -0.35680159	      0.98304508	      0.02548145	    118.58299759	     -9.66498388	      1.47021482	    113.59802137	      1.98265950	      4.30133763	     -1.49723765	      0.00000000	    103.13842782	     -6.31512307	      2.88144136	     57.15928442	      0.99761771	     -1.40558476	      5.95522262	      0.00000000	     -0.08555236	      0.31474034	      0.47282937	     -0.15887929	      0.41860465	      0.50238120	     -0.14055398	      0.76525965	      0.50238120	     -0.09777780	      0.76525965	      0.41372570	     -0.07944392	      0.64181849	      0.38417386	     -0.04888462	      0.48753278	      0.35462202	     -0.61109197	      3.56040563	      2.62973508	      0.00000000	      0.00000000	     -0.00000000	      0.00000000	      0.00000000	     68.04580237	    -10.30607732	      9.02238424	     33.91215309	     21.27756937	      0.00000000	      5.00000014	     69.10231499	     -4.65908806	     11.20062186	     30.64995213	     26.34479370	      0.00000000	      5.00000014
     11.25000000	    -49.34179896	     -3.36575426	     -1.57773119	     -0.35666838	      0.98262732	      0.02556070	    120.44227956	     -9.65529866	      1.13380224	    115.31940258	      2.01270327	      5.97502306	     -1.08140798	      0.00000000	    101.52901634	     -6.71740632	      3.43233665	     55.78751998	      0.97367591	     -1.86539792	      5.34333542	      0.00000000	     -0.08591478	      0.39444606	      0.54903819	     -0.15955234	      0.52461327	      0.58335308	     -0.14114939	      0.95905616	      0.58335308	     -0.09819200	      0.95905616	      0.48040842	     -0.07978047	      0.80435442	      0.44609353	     -0.04909171	      0.61099695	      0.41177865	     -0.61368069	      4.46205277	      3.05358573	      0.00000000	      0.00000000	     -0.00000000	      0.00000000	      0.00000000	     68.27770737	    -10.41612857	      9.81501927	     33.87448229	     21.40588541	      0.00000000	      5.00000014	     68.80695438	     -4.66914536	     10.50084201	     30.74268717	     26.21344363	      0.00000000	      5.00000014
     11.25800000	    -49.34215013	     -3.73362604	     -2.09321282	     -0.35655506	      0.98249801	      0.02560788	    122.27848357	     -9.66798422	      0.75653125	    116.69748519	      2.03675535	      7.49067639	     -0.68431240	      0.00000000	     99.99480423	     -7.14398327	      3.86606945	     54.53404119	      0.95179857	     -2.47093652	      4.61533150	      0.00000000	     -0.08599289	      0.46806096	      0.61436777	     -0.15969740	      0.62252108	      0.65276575	     -0.14127772	      1.13804343	      0.65276575	     -0.09828127	      1.13804343	      0.53757180	     -0.07985300	      0.95446992	      0.49917381	     -0.04913634	      0.72502643	      0.46077582	     -0.61423861	      5.29479924	      3.41692920	      0.00000000	      0.00000000	     -0.00000000	      0.00000000	      0.00000000	     68.59086644	    -10.50834036	     10.81378916	     33.72649081	     21.53688387	      0.00000000	      5.00000014	     68.51184468	     -4.72139041	      9.72098167	     30.85434247	     26.04604485	      0.00000000	      5.00000014
     11.26700000	    -49.37598954	     -3.97420371	     -2.68986168	     -0.35646576	      0.98265450	      0.02589542	    124.11231116	     -9.60594673	      0.26282864	    117.69143233	      2.05410300	      8.38476948	     -0.83551074	      0.00000000	     98.54124506	     -7.72389503	      4.18860601	     53.47544106	      0.93332252	     -2.84002117	      4.37989502	      0.00000000	     -0.08692016	      0.52277426	      0.69521934	     -0.16141942	      0.69528977	      0.73867055	     -0.14280113	      1.27107334	      0.73867055	     -0.09934105	      1.27107334	      0.60831692	     -0.08071406	      1.06604128	      0.56486571	     -0.04966618	      0.80977733	      0.52141450	     -0.62086199	      5.91372701	      3.86660139	      0.00000000	      0.00000000	     -0.00000000	      0.00000000	      0.00000000	     68.78067851	    -10.42297088	     11.02095231	     33.68381974	     21.61258479	      0.00000000	      5.00000014	     68.33572822	     -4.89998894	      9.54986664	     30.85541829	     26.04815384	      0.00000000	      5.00000014
     11.27500000	    -49.44054421	     -4.17922221	     -3.16223336	     -0.35641453	      0.98297956	      0.02589570	    125.80185825	     -9.71972527	     -0.27067184	    118.33088822	      2.06526361	      9.69100596	     -0.81541147	      0.00000000	     97.22348689	     -8.14705870	      4.35544040	     52.65024872	      0.91892019	     -3.62271045	      3.22816613	      0.00000000	     -0.08625629	      0.57318805	      0.74115764	     -0.16018655	      0.76234011	      0.78747999	     -0.14171046	      1.39364943	      0.78747999	     -0.09858231	      1.39364943	      0.64851293	     -0.08009759	      1.16884508	      0.60219058	     -0.04928684	      0.88786830	      0.55586823	     -0.61612004	      6.48401791	      4.12209643	      0.00000000	      0.00000000	     -0.00000000	      0.00000000	      0.00000000	     69.19894441	    -10.54703163	     12.66251620	     33.31602411	     21.76104614	      0.00000000	      5.00000014	     68.05139563	     -4.93794150	      8.38457740	     31.02521523	     25.75637265	      0.00000000	      5.00000014
     11.28300000	    -49.54155429	     -4.28221158	     -3.63625404	     -0.35642023	      0.98357274	      0.02611260	    127.44994450	     -9.78431162	     -0.83655012	    118.58043644	      2.06961904	     10.34090831	     -0.98589776	      0.00000000	     95.98285428	     -8.64713759	      4.48339547	     51.98390197	      0.90729025	     -3.94671702	      3.15065971	      0.00000000	     -0.08528207	      0.60785920	      0.79123633	     -0.15837733	      0.80845273	      0.84068860	     -0.14010991	      1.47794885	      0.84068860	     -0.09746888	      1.47794885	      0.69233179	     -0.07919293	      1.23954647	      0.64287952	     -0.04873017	      0.94157390	      0.59342725	     -0.60916129	      6.87622481	      4.40061909	      0.00000000	      0.00000000	     -0.00000000	      0.00000000	      0.00000000	     69.40398414	    -10.37588069	     12.79507662	     33.21148660	     21.79969539	      0.00000000	      5.00000014	     67.94071978	     -5.16520271	      8.23848726	     30.99500358	     25.74724487	      0.00000000	      5.00000014
     11.29200000	    -49.64176062	     -4.24608385	     -4.07464162	     -0.35647472	      0.98426059	      0.02645791	    128.94193115	     -9.79466776	     -1.42174767	    118.47968731	      2.06786064	     11.05861617	     -1.44912805	      0.00000000	     94.89531819	     -9.17507810	      4.24970647	     51.65473141	      0.90154514	     -4.45447048	      2.66039515	      0.00000000	     -0.08544372	      0.62123312	      0.83104422	     -0.15867754	      0.82624004	      0.88298449	     -0.14037549	      1.51046620	      0.88298449	     -0.09765363	      1.51046620	      0.72716370	     -0.07934304	      1.26681857	      0.67522343	     -0.04882254	      0.96229010	      0.62328317	     -0.61031596	      7.02751325	      4.62201866	      0.00000000	      0.00000000	     -0.00000000	      0.00000000	      0.00000000	     69.73954402	    -10.24889030	     13.53145141	     32.79250640	     21.87142906	      0.00000000	      5.00000014	     67.81686028	     -5.33518832	      7.61081879	     31.10248190	     25.61099540	      0.00000000	      5.00000014
     11.30000000	    -49.70927237	     -4.26547858	     -4.23049771	     -0.35644024	      0.98496564	      0.02630096	    130.31130238	    -10.05166688	     -1.78268535	    118.13692303	      2.06187828	     11.32229199	     -1.45361140	      0.00000000	     93.97599324	     -9.36166204	      4.26977911	     51.72487365	      0.90276935	     -4.62357636	      2.63916666	      0.00000000	     -0.08914371	      0.64172179	      0.84105498	     -0.16554878	      0.85348998	      0.89362091	     -0.14645419	      1.56028236	      0.89362091	     -0.10188234	      1.56028236	      0.73592310	     -0.08277884	      1.30859907	      0.68335717	     -0.05093671	      0.99402705	      0.63079123	     -0.63674457	      7.25928523	      4.67769546	      0.00000000	      0.00000000	     -0.00000000	      0.00000000	      0.00000000	     69.89910047	    -10.18300259	     13.56744413	     32.83658742	     21.91908795	      0.00000000	      5.00000014	     67.77086202	     -5.45759261	      7.55116139	     31.06765937	     25.63285221	      0.00000000	      5.00000014
     11.30800000	    -49.87467653	     -4.16551015	     -4.69465439	     -0.35668821	      0.98599960	      0.02701900	    131.45098359	     -9.90228270	     -2.45087846	    117.25919519	      2.04655903	     11.55866278	     -1.73822327	      0.00000000	     93.22075954	    -10.01723186	      3.75345199	     51.86533975	      0.90522095	     -5.07642661	      2.22104087	      0.00000000	     -0.08453143	      0.64106594	      0.88566966	     -0.15698332	      0.85261770	      0.94102401	     -0.13887669	      1.55868772	      0.94102401	     -0.09661097	      1.55868772	      0.77496095	     -0.07849589	      1.30726166	      0.71960660	     -0.04830126	      0.99301114	      0.66425224	     -0.60379955	      7.25186608	      4.92582894	      0.00000000	      0.00000000	     -0.00000000	      0.00000000	      0.00000000	     70.27060762	     -9.94781844	     14.25939128	     32.16092740	     22.00620876	      0.00000000	      5.00000014	     67.75444407	     -5.59176826	      6.92107671	     31.13580107	     25.52266925	      0.00000000	      5.00000014
